<?xml version="1.0" encoding="UTF-8"?>
<svg id="_레이어_1" data-name="레이어 1" xmlns="http://www.w3.org/2000/svg" viewBox="0 0 621.04 151.36">
  <defs>
    <style>
      .cls-1 {
        fill: #a04632;
      }
    </style>
  </defs>
  <path class="cls-1" d="M134.85,62.8c-3.7,0-6.72,3.01-6.72,6.72v50.11c-26.7,24.69-68.92,23.98-94.72-1.81-12.89-12.89-19.99-30.06-19.99-48.34s7.1-35.45,19.99-48.34c6.74-6.74,14.64-11.9,23.47-15.33l14.91-5.8h-33.23l-.74.47c-5.02,3.19-9.7,6.95-13.92,11.17C8.5,27.06,0,47.6,0,69.47s8.5,42.41,23.92,57.84c15.43,15.43,35.97,23.92,57.84,23.92,16.58,0,32.82-5.07,46.37-14.39v7.7c0,3.7,3.01,6.72,6.72,6.72s6.71-3.01,6.71-6.72v-75.03c0-3.7-3.01-6.72-6.71-6.72Z"/>
  <path class="cls-1" d="M292.35.67l-.83-.67h-27.67l11.58,5.69c15.6,7.67,25.3,23.21,25.3,40.55,0,24.89-20.24,45.15-45.11,45.15h-69.53V0h-13.43v144.65c0,3.7,3.01,6.71,6.72,6.71s6.72-3.01,6.72-6.71v-39.83h69.53c32.28,0,58.55-26.28,58.55-58.57,0-17.76-7.95-34.37-21.82-45.58Z"/>
  <path class="cls-1" d="M400.09,127.52L345.73,0h-14.6l62.78,147.29c1.06,2.48,3.49,4.08,6.18,4.08s5.12-1.6,6.18-4.08L469.05,0h-14.6l-54.36,127.52Z"/>
  <path class="cls-1" d="M619.08,117.82c-2.61-2.62-6.88-2.62-9.5,0-12.89,12.89-30.06,19.99-48.34,19.99s-35.45-7.1-48.34-19.99c-12.89-12.89-19.99-30.06-19.99-48.34s7.1-35.45,19.99-48.35c6.74-6.74,14.64-11.9,23.47-15.33l14.91-5.8h-33.23l-.74.47c-5.02,3.2-9.7,6.95-13.91,11.17,0,0,0,0,0,0-15.42,15.42-23.92,35.97-23.92,57.84s8.5,42.41,23.92,57.84c15.43,15.43,35.97,23.92,57.84,23.92s42.41-8.5,57.84-23.92c2.61-2.61,2.62-6.87,0-9.49Z"/>
</svg>