<?xml version="1.0" encoding="UTF-8"?>
<svg id="_레이어_1" data-name="레이어 1" xmlns="http://www.w3.org/2000/svg" viewBox="0 0 1444.17 351.97">
  <defs>
    <style>
      .cls-1 {
        fill: #555;
      }
    </style>
  </defs>
  <path class="cls-1" d="M313.59,146.04c-8.61,0-15.62,7.01-15.62,15.62v116.52c-62.09,57.42-160.28,55.77-220.26-4.21-29.98-29.98-46.49-69.9-46.49-112.41s16.51-82.44,46.49-112.42c15.67-15.67,34.04-27.66,54.59-35.65L166.96,0h-77.26l-1.71,1.09c-11.67,7.43-22.55,16.17-32.36,25.97C19.76,62.93,0,110.69,0,161.56s19.75,98.63,55.63,134.5c35.87,35.87,83.64,55.63,134.51,55.63,38.55,0,76.33-11.8,107.84-33.46v17.91c0,8.61,7.01,15.62,15.62,15.62s15.61-7.01,15.61-15.62v-174.48c0-8.61-7-15.62-15.61-15.62Z"/>
  <path class="cls-1" d="M679.83,1.55l-1.92-1.55h-64.34l26.93,13.24c36.29,17.84,58.83,53.97,58.83,94.29,0,57.89-47.06,104.98-104.91,104.98h-161.69V0h-31.24v336.37c0,8.61,7.01,15.61,15.62,15.61s15.62-7,15.62-15.61v-92.62h161.69c75.07,0,136.15-61.1,136.15-136.21,0-41.3-18.49-79.93-50.73-105.99Z"/>
  <path class="cls-1" d="M930.38,296.54L803.97,0h-33.95l145.99,342.5c2.47,5.76,8.1,9.48,14.36,9.48s11.9-3.72,14.36-9.49L1090.72,0h-33.95l-126.4,296.54Z"/>
  <path class="cls-1" d="M1439.62,273.98c-6.07-6.09-15.99-6.09-22.09,0-29.98,29.98-69.9,46.49-112.41,46.49s-82.44-16.51-112.42-46.49c-29.98-29.97-46.49-69.9-46.49-112.42s16.51-82.44,46.49-112.42c15.67-15.67,34.04-27.66,54.59-35.65l34.67-13.48h-77.27l-1.71,1.09c-11.67,7.43-22.56,16.17-32.36,25.97,0,0,0,0,0,0-35.87,35.87-55.63,83.63-55.63,134.5s19.76,98.63,55.63,134.5c35.87,35.87,83.64,55.63,134.51,55.63s98.62-19.76,134.49-55.63c6.08-6.07,6.08-15.98,0-22.08Z"/>
</svg>