<?xml version="1.0" encoding="UTF-8"?>
<svg id="_레이어_1" data-name="레이어 1" xmlns="http://www.w3.org/2000/svg" viewBox="0 0 717.7 642.7">
  <defs>
    <style>
      .cls-1 {
        fill: none;
      }

      .cls-2 {
        fill: #bdb9dc;
      }
    </style>
  </defs>
  <path class="cls-1" d="M415.4,497.7c-5.3,0-7.9,8.1-7.9,24.7s0,10.1.2,18.3c.2,8.1.3,14.1.3,18.3.8.7,1.5,1.2,2.3,1.2s2.4-1.5,4.4-4.2c6.5-9.1,9.7-20.7,9.7-35.3s-.3-8.9-.8-11.6c-1.4-7.6-4.1-11.4-8.2-11.4Z"/>
  <path class="cls-2" d="M380.7,534.4c-.6-.4-5.7-3.3-10.3-3.1h-5.9s-8.3.5-8.3.5c-.7-.2-5.3,4.6-4.8,13.7,3.6,5.6,7.4,6.1,12.7,6.1,3.6,0,2.3,12.9,2.3,23.5s.7,22.5-.2,24.1c-.8,1.3-4.5.5-6.2.5s-1.5-.2-2.1-.7c-3.6-3-4.9-10.6-5.6-17.8-.5-5.6-2.3-10.3-2.9-16.8-.7-8-6.4-19.1-7.3-21.6-.4-1-3.7-10.1-3.9-15.2,0-.9-1.9-6.3-1-13.1,1.2-9.8,6-8.3,6.7-8.4,2.6-.1,4.2-.5,5.4-.6,3.6-.3,6,.1,8.2,6,2,5.2,1.7,1.4,3.4,6.3.9,1.8,3.3.7,4.7.3,7.6-2.2,6-2.7,8.9-7.6,1.2-2.2,1.8-5.2,1.8-8.9s0-.5,0-.8c-1.9.5-3.9.8-5.9.8-6.8-.3-12.8-2.7-18.1-6.9-5.4-4.2-9.8-9.6-13.7-15.4-.1,0-.2.1-.3.2-3.1,9.6-7.7,20.7-16.9,25-.2,0-.3.1-.5.2-.7,2-1.3,4.1-1.7,6.5-1.2,7.4-.9,7.3-.3,17.9.5,9.5,3.2,15.3,9,27.1,3.6,7.4,4.5,11.3,6.6,18.3,2.9,9.6,6.3,18.7,8.2,25.9,1.6,6.1,10.4,18.1,12.8,22.1,2.2,3.7,2.1,7.4,3.5,11,2.3,5.8,0,6.1,1.8,8.1,1.1,1.2,3.8,1.3,4.4,1.2h2.1c3.8-.2,6.1-.2,9.9-.7,2.6-.4,3.1-2.8,2.9-5.6l-.2-2.2.3-19.9.9-15.1.4-19.7c0-8.3,1.9-19.4,1.5-26.3-.4-6.9-1.5-18.1-1.8-18.7Z"/>
  <path class="cls-2" d="M441.4,521.1c-9.8-10.9-14-26.2-18.4-39.9-.4-1.4-.9-2.8-1.4-4.2-2-.2-4.2-.3-6.4-.4-3.2-.2-6.7-.3-10.4-.3-.8,1-1.6,2-2.4,2.9-3.7,4.4-8.1,9.6-13.1,13.9v8.8s0,15.7,0,15.7l.6,14.7-.8,29.4.3,12.8-.4,26.1v20.2c0,0-.5,16.5-.5,16.5,0,3,1.5,4.7,4.7,5.2h2.9c0,0,10.5-.3,10.5-.3l2.5-.2.9-3,.6-8.7.2-13.8c-.9-4.3-.6-13.8-.9-17.1-.3-3.3-.3-5.4-.3-7.1,0-6.7.3-10.1.9-10.9,1.4-1.2,3.6-3.5,6.8-6.4,1.6-1.5,3.1-3,4.5-4.4,1.9-1.9,3.6-3.7,5.2-5.4,5.6-6.1,7.4-8.9,9.6-13,2.5-4.6,6.5-12,7.7-17.4.7-3.1,1.1-6.4,1.4-9.7-1.5-1.2-2.9-2.4-4.2-3.9ZM414.7,555.9c-2,2.7-3.5,4.2-4.4,4.2s-1.5-.5-2.3-1.2c0-4.2-.2-10.1-.3-18.3-.2-8.1-.2-14.1-.2-18.3,0-16.5,2.6-24.7,7.9-24.7s6.8,3.7,8.2,11.4c.5,2.7.8,6.4.8,11.6,0,14.6-3.2,26.2-9.7,35.3Z"/>
  <path class="cls-2" d="M89.3,242.5c5.6,6.3,9.2,14.1,14.2,20.9,8,10.6,19.1,19.1,29.3,27.6,1.4,1.2,2.9,2.4,4.3,3.6-1.4-4.8-2.2-9.8-2.2-14.9,0-15.9,2.6-32.4,8.5-47.2,4.9-12.3,12.1-24.1,23.1-31.9,1.6-1.1,3.2-2.1,4.9-2.9-2.7-7.3-6.1-14.3-10.1-21.1-3.5-5.9-7.6-11.6-11.1-17.6-3.6.1-7.2,0-11-.3-6.7-.6-14.4-1.9-20.6,1.6-9.8,5.4-16.1,17-20.6,26.7-6,13-9.6,27.5-10.6,41.8-.3,3.8-.4,7.6-.4,11.5.8.7,1.6,1.5,2.3,2.3Z"/>
  <path class="cls-2" d="M483.4,196.1c-.8,2.9-1.6,5.8-2.4,8.7,10-5.4,20.9-9.7,32.1-11.7,11.2-2,23-2,32.2,5.6,5.2,4.3,9.1,10.1,13.7,15.1,1,1.1,2,2,3,3,9.6-19.7,30.2-31.6,50.6-38.7.5-3.8,1.2-7.5,2.1-11.2,3.4-13.7,16.8-27.3,7.2-40.6-8.2-11.5-22.4-16.1-32-26-7.8-8-13.7-19.8-26-21-10.9-1-22.2,2.3-32.2,6.3-12.4,5-24.1,12.2-34.2,20.9-6.3,5.4-12.6,11.6-17,18.8,2.8,9.1,5.1,18.2,6.2,27.8,1.6,14.5.7,29-3,43.1Z"/>
  <path class="cls-2" d="M322.1,101.3c12.5,17.9,26.3,35.2,34.2,55.3,3.9-.3,7.8-.3,11.7-.8,13.4-2,26.7-5.3,40.2-6.3,6.1-.5,12.5-.6,18.5,1.1,6.6,1.9,13.2,5.2,18.6,9.4,8.2,6.2,13.1,14.8,14.5,24.7.2,1.2.3,2.4.4,3.7.2,4.6-.2,9.3-1,13.9-1,5.7-2.6,11.4-4.1,16.9-.4,1.5-.8,3-1.2,4.4.5-.4,1-.9,1.5-1.3,4.8-4.1,9.9-7.9,15.1-11.3,2.8-11.5,7-22.6,7.9-34.5,1.1-13.2-.2-26.5-3.4-39.3-.4-1.8-.9-3.6-1.4-5.3-.2-.6-.4-1.3-.6-1.9-.6-1.9-1.2-3.7-1.8-5.6-3-9.3-6.2-18.4-7.8-28.1-3.2-19.4,2.6-40.8-9.4-57.9-8.7-12.4-23.1-19.6-35.9-27-11.5-6.6-24.7-13.5-38.4-10.9-12.5,2.4-22.8,10.6-31.1,19.8-9.5,10.5-16.9,23-22.8,35.9-4,8.9-6.9,17.5-6.4,27.3.3,6,1.5,11.9,2.7,17.7Z"/>
  <path class="cls-2" d="M155.1,150.1c.7,1.4,1.5,2.7,2.3,4.1.7,1.3,1.5,2.5,2.3,3.7.6,1,1.3,2,1.9,3.1,5.7,8.9,11.3,17.8,15.4,27.5.8,2,1.6,4,2.4,6,9-2.6,18.7-2.9,27.9-3.4,2.4-.1,4.7-.2,7.1-.3,1.7,0,3.3-.2,5-.2,1.7,0,3.4-.2,5.1-.3,2.4-.1,4.8-.3,7.2-.5,7.3-.6,14.6-.7,21.9.3,8.7,1.2,17.1,4.8,21.8,12.5,3.8,6.3,4.6,13.8,6.1,20.9,1.7,8,5.1,15.3,9.2,22.2,0-2.5,0-5,.1-7.5,1-13.6,7.7-25.7,14.3-37.3,2.9-5.2,6.1-10.3,9.6-15.3,1.2-1.7,2.5-3.4,3.8-5.1,1.5-1.9,3.1-3.8,4.7-5.5,3.6-3.9,7.5-7.5,11.8-10.5,3.9-2.8,8.3-5,12.9-6.4,0,0,0-.1,0-.2-5.5-13.5-13.7-25.7-22.1-37.6-1.3-1.8-2.6-3.6-3.8-5.3-.5-.7-1-1.4-1.6-2.1-2-2.7-4-5.4-6-8.2-6.1-8.4-11.8-17.2-15.7-26.7-2.7-6.6-3.3-13.6-4.7-20.5-1.3-6.3-3.1-11-8.5-14-9.6-5.2-23.1-3.6-33.5-2.5-8.5.9-16.4.5-24.8-1-6.6-1.2-13.6-3.2-20.3-2.1-12.2,1.9-22.5,13.5-29.7,22.5-9.6,12.1-17,26.2-21.8,40.8-3.8,11.5-7.1,25-4.4,37.1.9,4.2,2.5,8.1,4.4,11.8Z"/>
  <path class="cls-2" d="M325.6,487.2c2.9-5.6,5-11.6,6.7-17.8-2.9-5.1-5.6-10.2-8.3-15-4.8-8.5-10.1-16.8-15-25.4-1-1.8-2.1-3.7-3.1-5.6-1.1-2-2.1-4-3.1-6-.2-.3-.3-.7-.5-1-3.6-7.5-6.6-15.4-8.7-23.5-2.3-8.8-3.2-17.8-4.7-26.7-1.5-9-3-18.1-2.7-27.2,0-.5,0-1.1,0-1.6,0-1.2.2-2.3.3-3.4.2-1.5.4-3.1.7-4.6,1-5.2,2.5-10.4,3.6-15.6.3-1.5.6-3,.9-4.4.3-1.6.5-3.2.8-4.9.6-4.4,1-8.8,1.1-13.2.3-7.8,0-15.7-.9-23.6-.1-1-.2-2.1-.4-3.1-5.1-7.4-9.9-15-13.9-23-3.7-7.4-5.3-15-6.9-23.1-1.2-6.2-2.7-12.2-7.4-15.7-8.1-6.2-20.8-5.4-30.3-4.8-1,0-2.1.1-3.1.2-1.8.1-3.5.2-5.3.3-1.8.1-3.5.2-5.3.3-3.2.2-6.4.4-9.6.5-7.4.3-14.9.5-22.3,1.7-2.2.4-4.3.8-6.4,1.4-1.4.4-2.7.8-4,1.4-1.3.5-2.7,1.1-4,1.8-.9.5-1.8,1-2.7,1.6-4.6,3.1-8.5,7.4-11.6,11.9-8.1,11.7-12.4,25.6-14.7,39.5-1.8,11.3-3,23.7.6,34.8,1.6,4.9,4,9.5,6.7,14,15.9,14.2,30.4,29.6,40.3,48.9,6.6,12.9,13.6,25.4,21,37.8,5.1,8.5,10.3,17.2,14.5,26.3.9,1.9,1.7,3.7,2.5,5.6.8,1.9,1.5,3.9,2.2,5.9.2.7.5,1.3.7,2,1.9,5.9,2.7,12,3.8,18,.2,1.4.5,2.7.8,4.1.8.6,1.7,1.2,2.5,1.8,12.4,8.8,24.8,17.5,37.3,26.2,11,7.7,25.2,17.8,39.1,12.7,4-2,6.5-5.8,8.5-9.7Z"/>
  <path class="cls-2" d="M393.8,476.3c6.1-6.9,11.6-14.3,17.6-21.2.6-.7,1.2-1.5,1.8-2.2-1.5-4.4-2.9-8.7-4.2-13.2-4.7-16.3-6.2-32.5-5.1-49.4,1.1-17.1.5-34,8.4-49.7.6-1.2,1.1-2.3,1.7-3.5.9-1.8,1.7-3.6,2.5-5.5,1-2.3,1.9-4.6,2.8-7,3.5-9.2,6-18.7,7.5-28.5,1.6-10.7,1.6-21.5,3.3-32.1,1.6-10,5.7-18.9,11.5-26.8.2-.3.5-.6.7-1,0-.5.1-1,.2-1.5.4-2.6,1-5.2,1.7-7.8,4-15.4,11.3-31.6,6-47.1-3.7-10.7-14.6-17.5-25-20.7-5.2-1.7-11-1.4-16.4-1.1-6.7.5-13.4,1.6-20,2.8-6.1,1.1-12.3,2.3-18.4,3.3-3.7.6-7.4.7-11.1.9-1.3,0-2.5.2-3.8.3-.2,0-.4,0-.6,0-1.4.2-2.8.4-4.2.8-10.5,2.9-19,11.5-25.5,19.7-.6.8-1.2,1.6-1.9,2.4-1.2,1.6-2.4,3.3-3.5,5-1.1,1.6-2.2,3.3-3.2,5-1.6,2.7-3.2,5.3-4.7,8.1-3.6,6.5-7.5,13.2-10,20.3-3.1,8.6-3,17.5-2.1,26.5.3,2.8.6,5.6,1,8.5.4,3,.7,5.9,1,8.9.3,2.8.5,5.6.7,8.5.1,2.4.2,4.8.2,7.2,0,7.1-.6,14.2-1.7,21.2-.3,2-.7,4-1.1,6-.6,2.6-1.2,5.3-1.9,7.9-.7,2.6-1.3,5.3-1.9,8-.3,1.3-.5,2.5-.7,3.8,0,.5-.1.9-.2,1.4-.2,1.5-.3,3.1-.4,4.6,0,1.7,0,3.4,0,5.1.2,5.4,1,10.9,1.8,16.2,1.4,8.8,2.4,17.8,4.3,26.5,1.1,4.7,2.4,9.3,4.1,13.8,1,2.8,2.1,5.6,3.3,8.3,1,2.4,2.2,4.7,3.3,7.1,2.1,4.1,4.3,8.1,6.6,12.1,5.7,9.8,11.4,19.6,17.1,29.4,1,1.7,2,3.4,3,5.2.8,1.4,1.7,2.9,2.5,4.3.2.3.3.6.5.9,1.6,2.7,3.4,5.7,5.4,8.6,5.7,8.4,13.1,16.2,23.4,16.7,1.6,0,3.2-.3,4.7-.9,3.3-1.3,6.4-3.7,9-5.9,2.5-2.2,4.8-4.5,7.1-6.8,1-1,1.9-2.1,2.9-3.2Z"/>
  <path class="cls-2" d="M514.3,428.1c-1-7.7-2.3-15.4-3.6-23-.2-1.5-.5-3.1-.7-4.6-.2-1.5-.5-3-.7-4.5-.6-4.3-1.2-8.6-1.6-12.9-.8-8-.9-16-.2-24,.8-8.8,2.9-17.2,5-25.8,1.8-7.7,3.3-15.5,5.9-22.9,2.7-7.8,6.5-14.3,11.5-20.8,9.2-11.8,16.6-24.9,21.3-39.2,2.8-8.3,4.6-16.9,7.3-25.2-1.4-1.1-2.7-2.3-3.9-3.6-7.8-8-13.7-19.8-26-21-10.9-1-22.2,2.3-32.2,6.3-6.3,2.6-12.5,5.7-18.4,9.3-1.7,1.1-3.4,2.2-5.1,3.3-1.7,1.2-3.5,2.4-5.1,3.7-1.9,1.5-3.8,3-5.6,4.6-3.9,3.4-7.9,7.1-11.4,11.2-.5.5-.9,1.1-1.4,1.6-1.2,1.4-2.2,2.9-3.3,4.4-.6,1-1.3,2-1.8,3-.8,1.4-1.6,2.8-2.2,4.3-.4.9-.8,1.9-1.2,2.9-.6,1.6-1.1,3.3-1.5,4.9-1.7,7.1-2.1,14.4-2.7,21.7-.7,9.2-1.9,18.4-3.9,27.4-.6,2.6-1.3,5.2-2,7.8-.2.8-.5,1.6-.8,2.4-1.1,3.4-2.3,6.8-3.6,10.2-1.3,3.2-2.7,6.4-4.1,9.6-3.7,8-7.1,15.4-8.3,24.2-1.1,8.1-1.1,16.3-1.5,24.4-.4,8.2-.9,16.3-.2,24.6.9,10.7,3.6,21,6.9,31.1.6,1.8,1.2,3.7,1.8,5.5.6,1.6,1.1,3.2,1.7,4.8,0,0,0,0,0,.1,3.5,9.8,6.5,19.7,9.9,29.6,1.3,3.8,2.6,7.6,4,11.4,2.2,5.9,4.9,12.5,8.9,17.8,3.3,4.4,7.6,7.8,13.1,9.2,4.7,1,9.8-1.5,13.8-3.7,11.7-6.4,21.4-15.7,31.8-23.8,8.9-7,15.6-15.2,21.4-24.6-.3-.4-.6-.8-.8-1.2-7.5-11.9-8.9-27-10.7-40.6Z"/>
  <path class="cls-2" d="M716.3,238.6c-1.2-2.7-2.7-5.2-4.4-7.5-6.3-8.5-15.6-14.7-21.8-23.3-6.6-9.1-10.2-22.4-21.8-26.3-10-3.3-21.4-2.7-31.7-1-5.5.9-10.9,2.2-16.2,3.8-1.5.4-2.9.9-4.4,1.4-1.5.5-3,1.1-4.6,1.7-4.3,1.7-8.4,3.5-12.4,5.7-9.9,5.2-20.3,11.9-26.4,21.5-1.5,2.4-2.8,4.9-3.9,7.5-.6,1.4-1.1,2.8-1.6,4.3-.5,1.4-.9,2.8-1.3,4.2-.8,2.8-1.6,5.6-2.3,8.5-3,11.1-6.5,21.9-11.7,32.1-3.5,7-7.7,13.7-12.4,20-4.9,6.6-9.6,12.6-12.4,20.5-2.4,6.8-3.9,13.8-5.5,20.8-1.9,8.1-4.2,16-5.2,24.3-1.3,11.5-.6,22.9.9,34.2.2,1.6.4,3.1.7,4.7.2,1.6.5,3.2.8,4.8,0,.2,0,.4.1.6,2.4,14.3,3.8,28.9,6.6,43.2,1.1,5.9,2.6,12.1,5.4,17.4.8,1.5,1.6,2.9,2.6,4.2.9,1.2,1.9,2.4,3,3.4,1.6,1.5,3.4,2.8,5.6,3.8,4.4,1.5,8.9.8,13.3-.4,12.9-3.6,24.5-10.8,36.4-16.7,5.7-2.8,11-5.8,15.8-9.9,5.6-4.8,10.6-10.3,15.4-15.9,9.9-11.8,18.7-24.5,29.2-35.8,8.3-8.8,16.2-17.3,21.8-28.1,7.9-15.1,12-31.7,15.6-48.3,3.2-14.5,5.8-29.6,12-43.2,2.4-5.4,6.8-10.4,10.4-15.5,4.4-6.3,7.6-12.8,4.4-20.4Z"/>
  <path class="cls-2" d="M229.2,454.8c-.2-1.3-.5-2.7-.7-4-.1-.8-.3-1.7-.4-2.5-.9-4.9-1.8-9.6-3.5-14.3-.9-2.5-1.9-5-3-7.5-.9-2-1.9-4.1-2.9-6-.8-1.6-1.6-3.1-2.5-4.7-.3-.5-.6-1.1-.9-1.6-7.1-13-15.4-25.4-22.4-38.6-5.3-10-9.8-20.3-16.3-29.6-2.6-3.7-5.3-7.2-8.2-10.6-3.5-4.1-7.3-8.1-11.2-11.9-3.7-3.7-7.6-7.2-11.6-10.6-10.7-9.4-22-18.2-32.6-27.7-8-7.2-15.3-14.7-21.1-23.9-.8-1.3-1.6-2.7-2.5-4.1-1.8-3-3.7-6-6-8.6-1.3-1.5-2.7-2.8-4.4-3.9-.1-.1-.3-.2-.5-.3-7.8-5-17.9-2.9-26.3-.6-6.2,1.8-12.3,3.7-18.7,5-6.2,1.3-12.5,2.4-18.4,4.6-5,1.9-8.4,5.1-10.8,9.1-2.4,4.1-3.6,9-4.1,14.1-1.3,12.5.7,25.2,4.1,37.3.6,2,1.2,4,1.8,6,3.2,10,7.2,19.3,14.2,27.2,5.8,6.6,12.6,12.1,19,18,8.4,7.7,16.2,15.8,23.1,24.8,9.1,11.8,15.5,25.6,26.1,36.3,5,5,10.4,9.5,15.7,14,5.7,4.8,11.1,9.8,17,14.3,11.1,8.3,23.4,14.8,36.1,20.1,12.9,5.4,25.8,11,38.7,16.4,6.4,2.6,12.9,5.2,19.7,6.6,4.8.9,10.5,1.3,14.5-2,2.6-2.5,2.7-6.8,2.7-10.2,0-8.2-1.4-16.4-2.9-24.6-.4-2.1-.8-4.2-1.2-6.2Z"/>
</svg>