<?xml version="1.0" standalone="no"?>
<!DOCTYPE svg PUBLIC "-//W3C//DTD SVG 20010904//EN"
 "http://www.w3.org/TR/2001/REC-SVG-20010904/DTD/svg10.dtd">
<svg version="1.0" xmlns="http://www.w3.org/2000/svg"
 width="508.000000pt" height="112.000000pt" viewBox="0 0 508.000000 112.000000"
 preserveAspectRatio="xMidYMid meet">

<g transform="translate(0.000000,112.000000) scale(0.100000,-0.100000)"
fill="#000000" stroke="none">
<path d="M245 941 c-113 -51 -156 -191 -96 -310 45 -87 186 -125 274 -73 38
22 39 22 44 2 3 -11 9 -20 14 -20 10 0 10 70 0 115 -7 29 -7 29 -19 -18 -15
-57 -55 -87 -117 -87 -83 0 -125 65 -125 195 0 132 44 201 127 199 59 -1 94
-28 114 -88 l16 -48 6 39 c10 57 8 103 -3 103 -5 0 -10 -7 -10 -15 0 -20 -8
-19 -55 5 -49 25 -117 25 -170 1z"/>
<path d="M1025 941 c-113 -51 -156 -191 -96 -310 56 -108 240 -130 328 -39
111 115 69 318 -75 358 -55 15 -112 12 -157 -9z m140 -13 c42 -33 65 -92 65
-173 0 -85 -13 -135 -45 -174 -75 -88 -182 -12 -193 139 -12 166 82 280 173
208z"/>
<path d="M1433 945 c-40 -17 -67 -67 -59 -109 7 -37 38 -69 116 -118 30 -19
60 -41 67 -49 42 -51 10 -119 -56 -119 -20 0 -47 7 -59 16 -26 18 -52 65 -52
93 0 11 -4 23 -10 26 -6 4 -10 -22 -10 -71 0 -65 2 -75 14 -65 11 10 25 9 63
-4 114 -39 226 26 209 121 -7 36 -39 68 -116 117 -75 48 -92 68 -88 108 4 46
43 66 94 49 29 -10 41 -22 59 -62 l23 -50 4 59 c4 63 2 75 -12 54 -7 -12 -15
-11 -49 3 -50 19 -95 20 -138 1z"/>
<path d="M3121 946 c-7 -8 -11 -25 -9 -38 2 -18 10 -24 39 -26 31 -3 36 -6 32
-23 -3 -11 -15 -26 -26 -34 -12 -8 -16 -15 -9 -15 19 0 51 36 58 67 14 55 -52
109 -85 69z"/>
<path d="M3370 944 c-133 -58 -170 -252 -67 -352 98 -95 279 -68 336 50 30 62
29 159 -2 219 -43 83 -174 123 -267 83z m139 -20 c40 -33 49 -51 62 -116 25
-131 -33 -262 -116 -262 -102 0 -157 180 -98 325 31 78 96 100 152 53z"/>
<path d="M4574 941 c-90 -41 -138 -149 -113 -253 31 -129 169 -191 295 -130
32 15 35 15 49 -4 13 -17 14 -12 15 54 0 76 -13 96 -24 37 -11 -59 -44 -87
-107 -93 -51 -4 -58 -2 -87 27 -37 38 -52 84 -52 166 0 106 38 185 95 199 63
16 139 -32 152 -96 10 -50 23 -29 23 37 0 37 -4 65 -10 65 -5 0 -10 -7 -10
-15 0 -20 -8 -19 -55 5 -49 25 -117 25 -171 1z"/>
<path d="M550 941 l25 -7 3 -182 2 -181 -27 -15 c-26 -14 -15 -15 146 -16
l174 0 -7 31 c-3 17 -6 50 -7 73 -1 35 -2 37 -8 15 -12 -37 -32 -72 -50 -86
-22 -16 -75 -25 -105 -17 l-26 6 0 184 c0 182 0 185 23 194 15 6 -7 9 -73 8
-53 0 -84 -3 -70 -7z"/>
<path d="M1870 942 l25 -8 3 -179 c2 -176 2 -180 -20 -198 -22 -17 -20 -18
107 -15 145 4 188 18 238 78 53 62 60 176 16 246 -39 64 -84 78 -249 81 -80 1
-134 -1 -120 -5z m235 -16 c44 -19 67 -64 73 -147 6 -90 -12 -162 -49 -194
-33 -27 -86 -41 -118 -30 -20 6 -21 13 -21 189 0 100 3 186 7 189 11 12 72 8
108 -7z"/>
<path d="M2310 941 l25 -7 3 -182 2 -181 -27 -15 c-26 -14 -15 -15 146 -16
l173 0 -6 22 c-3 13 -6 43 -7 68 l0 45 -15 -40 c-23 -62 -43 -77 -108 -79 -41
-1 -59 3 -66 14 -5 8 -10 50 -10 93 l0 77 28 0 c35 0 52 -12 68 -47 11 -25 12
-20 13 57 l0 85 -20 -37 c-19 -37 -56 -57 -78 -43 -14 8 -14 140 -1 166 8 15
21 19 59 19 59 0 85 -19 105 -75 l15 -40 0 63 1 62 -162 -1 c-90 -1 -152 -4
-138 -8z"/>
<path d="M2848 940 c22 -9 22 -12 22 -195 0 -154 -2 -185 -14 -185 -8 0 -18
-4 -21 -10 -4 -7 52 -10 160 -10 l165 0 -3 65 c-4 73 -11 90 -20 45 -14 -70
-77 -110 -148 -95 l-29 7 2 186 3 186 25 7 c14 4 -17 7 -70 7 -66 1 -88 -2
-72 -8z"/>
<path d="M3710 937 c25 -13 25 -13 28 -172 3 -182 1 -198 -30 -213 -32 -15
187 -16 248 -1 53 14 94 57 94 101 0 37 -46 86 -89 94 -40 8 -39 16 2 36 46
22 66 70 46 107 -26 48 -71 61 -204 61 -103 0 -117 -2 -95 -13z m200 -17 c28
-28 27 -98 -1 -134 -15 -19 -30 -26 -55 -26 l-34 0 0 78 c0 47 5 83 12 90 18
18 56 14 78 -8z m3 -182 c34 -18 46 -40 47 -84 0 -27 -7 -50 -21 -68 -18 -23
-27 -27 -68 -24 l-46 3 -3 93 -3 92 36 0 c20 0 46 -5 58 -12z"/>
<path d="M4227 918 c-116 -282 -143 -342 -159 -351 -31 -20 -20 -27 45 -27 61
1 61 1 35 16 -33 17 -36 44 -12 104 l16 40 68 0 67 0 22 -51 c27 -65 26 -83
-1 -97 -19 -9 -6 -11 65 -11 48 -1 87 1 87 4 0 3 -8 13 -18 23 -10 10 -51 100
-92 200 -80 196 -96 215 -123 150z m48 -188 c6 -18 2 -20 -55 -20 -70 0 -69
-4 -23 100 l24 55 24 -58 c13 -31 27 -66 30 -77z"/>
<path d="M4910 935 c-19 -22 -8 -25 13 -3 9 10 13 18 8 18 -5 0 -14 -7 -21
-15z"/>
<path d="M4986 914 c4 -19 1 -34 -5 -38 -11 -7 -15 10 -12 44 1 11 -1 11 -9
-2 -8 -13 -8 -24 0 -38 9 -17 8 -20 -12 -21 -18 -1 -19 -2 -5 -6 22 -6 57 23
57 46 0 9 -5 23 -10 31 -7 11 -8 6 -4 -16z"/>
<path d="M4932 900 c0 -19 2 -27 5 -17 2 9 2 25 0 35 -3 9 -5 1 -5 -18z"/>
<path d="M4900 886 c0 -8 4 -17 9 -20 5 -4 7 3 4 14 -6 23 -13 26 -13 6z"/>
</g>
</svg>
