<svg version="1.1" id="Layer_1" xmlns="http://www.w3.org/2000/svg" xmlns:xlink="http://www.w3.org/1999/xlink" x="0px" y="0px"
	 width="100%" viewBox="0 0 400 400" enable-background="new 0 0 400 400" xml:space="preserve">
<path fill="#FFFFFF" opacity="1.000000" stroke="none" 
	d="
M1.000000,153.000000 
	C1.000000,102.015778 1.000000,51.531559 1.000000,1.023668 
	C134.275894,1.023668 267.551788,1.023668 400.913849,1.023668 
	C400.913849,134.234177 400.913849,267.468445 400.913849,400.851349 
	C267.666779,400.851349 134.333420,400.851349 1.000000,400.851349 
	C1.000000,318.448273 1.000000,235.974136 1.000000,153.000000 
M360.741211,364.999817 
	C361.397522,364.862762 362.053833,364.725739 363.164886,364.493744 
	C351.470337,357.395355 349.859863,347.411865 351.320984,338.642426 
	C353.049622,328.267181 359.411407,321.995850 368.491608,321.192169 
	C372.684784,320.820984 377.468475,321.533722 381.222168,323.339539 
	C385.057983,325.184845 387.960052,328.971161 391.327454,331.957947 
	C391.327454,235.538635 391.327454,138.450058 391.327454,41.180054 
	C376.132690,41.180054 360.698212,41.180054 345.218323,41.180054 
	C329.651306,79.973900 302.149200,106.942856 263.773621,123.406143 
	C263.773621,159.648880 263.773621,195.732330 263.773621,231.697021 
	C227.991196,231.697021 192.588196,231.697021 156.989578,231.697021 
	C156.989578,195.426468 156.989578,159.458191 156.989578,123.636482 
	C152.377121,121.661598 147.764160,120.170677 143.631180,117.831673 
	C127.234314,108.552162 112.293037,97.519791 100.132759,82.805984 
	C90.560425,71.223579 83.071678,58.498745 77.207954,44.823112 
	C75.892776,41.755798 74.769127,40.937820 71.778854,40.951225 
	C51.114788,41.043854 30.450096,40.994617 9.785628,41.013279 
	C8.532955,41.014408 7.280454,41.206676 6.358461,41.282738 
	C6.358461,136.127945 6.358461,230.526489 6.358461,325.315338 
	C16.128624,325.315338 25.542276,325.315338 34.828949,325.315338 
	C34.828949,327.665466 34.828949,329.622131 34.828949,332.141785 
	C27.461809,332.141785 20.249142,332.141785 13.178150,332.141785 
	C13.178150,335.336670 13.178150,337.961548 13.178150,341.143188 
	C20.214602,341.143188 27.093098,341.143188 33.827526,341.143188 
	C33.827526,343.672729 33.827526,345.631195 33.827526,348.146515 
	C26.794046,348.146515 19.912264,348.146515 13.182578,348.146515 
	C13.182578,351.674042 13.182578,354.630341 13.182578,358.149780 
	C20.886854,358.149780 28.428152,358.149780 36.148499,358.149780 
	C36.148499,360.680115 36.148499,362.640656 36.148499,364.641479 
	C37.874557,364.641479 39.378288,364.641479 41.279510,364.641479 
	C41.279510,351.208130 41.279510,338.129303 41.279510,325.162598 
	C43.645752,325.162598 45.604885,325.162598 48.132095,325.162598 
	C48.132095,336.185211 48.132095,347.059692 48.132095,358.300537 
	C54.787842,358.300537 60.873585,358.300537 67.132408,358.300537 
	C67.132408,360.650574 67.132408,362.609589 67.132408,364.673218 
	C76.502411,364.673218 85.672539,364.673218 95.408798,364.673218 
	C94.771782,363.682281 94.541779,363.084137 94.117737,362.700348 
	C85.467751,354.871429 84.494591,344.969116 87.109406,334.513672 
	C89.001900,326.946472 95.275871,321.567993 105.770515,321.000610 
	C113.649239,320.574646 122.209618,325.409271 123.615669,334.558533 
	C119.909492,334.823700 116.453888,336.525330 113.450867,332.104156 
	C110.898766,328.346802 107.045837,327.274902 102.333267,328.916046 
	C97.139198,330.724884 95.509506,334.852509 94.255455,339.402161 
	C92.828285,344.579865 95.436302,353.998260 98.941498,355.962982 
	C105.665047,359.731689 113.453346,359.852844 116.558937,347.681030 
	C119.366684,348.420776 122.167503,349.158752 125.413696,350.014038 
	C123.638329,353.352539 122.576683,356.328735 120.689529,358.627106 
	C118.730309,361.013184 115.972275,362.743317 113.753227,364.601501 
	C120.652176,364.601501 127.772621,364.601501 134.873978,364.601501 
	C134.873978,364.044617 134.937531,363.789429 134.864899,363.741760 
	C130.045563,360.579224 126.789780,356.473267 128.302628,350.397797 
	C129.979675,343.662994 133.689850,341.071259 141.574005,339.950043 
	C146.825378,339.203247 152.009537,337.983826 157.110016,336.997894 
	C156.481064,330.932190 153.756409,328.299438 148.844940,328.011047 
	C143.985184,327.725708 139.702454,328.395721 137.857010,333.970428 
	C137.551285,334.893921 135.645508,335.835571 134.502060,335.808319 
	C132.687881,335.765076 130.892990,334.912018 129.144180,334.416931 
	C130.851685,324.735291 138.003754,321.465454 146.364059,321.154022 
	C159.070908,320.680664 165.230698,324.144440 165.150421,337.802795 
	C165.101761,346.083160 163.204361,354.620117 166.846741,362.725006 
	C167.028595,363.129639 165.952362,364.099701 165.493454,364.761047 
	C168.218079,364.761047 170.965347,364.761047 174.097412,364.761047 
	C174.097412,350.447845 174.097412,336.368011 174.097412,322.394836 
	C174.793900,322.195374 175.095505,322.034546 175.397690,322.033447 
	C181.563461,322.011322 187.729431,321.980286 193.895111,322.006561 
	C202.560226,322.043427 206.706436,326.376953 207.079346,334.726440 
	C207.451645,343.061951 202.150726,348.072540 193.935150,348.005524 
	C190.007401,347.973511 186.079163,348.000000 182.314911,348.000000 
	C182.314911,354.033508 182.314911,359.440948 182.314911,364.681854 
	C192.372543,364.681854 202.112793,364.681854 212.242340,364.681854 
	C212.242340,350.290924 212.242340,336.215271 212.242340,322.000000 
	C220.127548,322.000000 227.636627,322.361694 235.094162,321.896698 
	C242.324371,321.445801 246.372772,326.706970 246.952637,330.862854 
	C248.112244,339.173859 245.565628,343.253296 238.899948,345.176178 
	C242.667282,350.977905 246.448242,356.982635 250.461792,362.827728 
	C251.263168,363.994812 252.952454,364.552216 255.211578,366.032318 
	C255.211578,350.312164 255.211578,336.221771 255.211578,322.311584 
	C258.020477,322.311584 260.429108,322.311584 263.221069,322.311584 
	C263.221069,336.695526 263.221069,350.771393 263.221069,364.484100 
	C268.759613,364.484100 273.883331,364.484100 279.890930,364.484100 
	C269.642761,357.663635 267.288879,348.893860 268.891052,338.112793 
	C270.700104,325.939148 279.795563,320.386963 290.747833,321.045563 
	C299.395630,321.565582 305.969849,328.229156 305.637909,335.666290 
	C303.289978,336.108551 300.942017,336.550812 298.284393,337.051392 
	C297.955658,331.381165 293.927551,329.026489 289.399414,328.289215 
	C284.954163,327.565460 280.606934,329.937805 278.942902,333.923492 
	C277.324768,337.799164 277.256622,342.440918 277.081818,346.769440 
	C276.874908,351.892334 281.213257,357.291107 285.484375,357.992676 
	C291.669861,359.008728 295.498779,356.724823 298.054535,350.590240 
	C298.960480,348.415741 300.263702,347.081268 302.920227,348.392914 
	C304.153656,349.001892 305.635071,349.108582 307.135956,349.475220 
	C305.659393,356.208466 302.959869,361.759003 295.312500,364.771912 
	C301.574860,364.771912 306.621552,364.771912 312.058777,364.771912 
	C312.058777,350.468597 312.058777,336.387451 312.058777,322.225616 
	C314.863770,322.225616 317.268585,322.225616 320.066650,322.225616 
	C320.066650,327.522614 320.066650,332.609100 320.066650,337.763000 
	C326.208191,337.763000 331.947052,337.763000 338.077087,337.763000 
	C338.077087,332.451385 338.077087,327.361877 338.077087,322.236084 
	C340.882996,322.236084 343.287872,322.236084 346.084320,322.236084 
	C346.084320,336.544830 346.084320,350.622986 346.084320,365.000000 
	C350.945038,365.000000 355.412170,365.000000 360.741211,364.999817 
M150.422501,75.036499 
	C157.052780,78.937119 163.418335,83.408600 170.363800,86.629562 
	C189.902222,95.690491 210.628189,97.439751 231.333344,92.658684 
	C259.538452,86.145775 282.217865,70.892090 297.637970,45.846161 
	C298.442108,44.540035 298.717010,42.908054 299.314178,41.212311 
	C239.669495,41.212311 180.955688,41.212311 121.661156,41.212311 
	C128.688324,54.819832 138.066422,65.815842 150.422501,75.036499 
M359.999786,338.672028 
	C360.003174,341.982178 359.560913,345.369324 360.116425,348.584076 
	C360.912048,353.188660 364.005249,356.545319 368.469940,357.700714 
	C372.695374,358.794189 376.660889,358.040741 380.181946,354.527252 
	C383.916779,350.800476 384.075836,346.519226 384.007782,341.900421 
	C383.899628,334.562347 379.863098,329.649475 372.847504,328.399323 
	C367.733398,327.487976 362.243896,331.522919 359.999786,338.672028 
M337.943146,346.746216 
	C332.098999,346.394287 326.254852,346.042358 320.207642,345.678223 
	C320.207642,352.481140 320.207642,358.552063 320.207642,364.789490 
	C326.153870,364.789490 331.891479,364.789490 337.996063,364.789490 
	C337.996063,358.962341 337.996063,353.337677 337.943146,346.746216 
M226.920517,347.000427 
	C224.669037,347.000427 222.417542,347.000427 220.301392,347.000427 
	C220.301392,353.351654 220.301392,359.085266 220.301392,364.751495 
	C227.331009,364.751495 234.057022,364.751495 240.783035,364.751495 
	C241.121628,364.381042 241.460205,364.010620 241.798782,363.640167 
	C237.121460,358.095856 232.444138,352.551514 226.920517,347.000427 
M143.488052,346.945862 
	C140.041504,346.754486 137.336044,348.527863 137.253098,351.673248 
	C137.199020,353.723846 139.087784,357.002197 140.903961,357.724396 
	C149.311630,361.067596 158.027130,353.182556 156.501785,344.291718 
	C152.370087,344.983185 148.239304,345.674500 143.488052,346.945862 
M186.537415,341.000000 
	C188.859741,340.997467 191.494186,341.683655 193.421783,340.810089 
	C195.608017,339.819366 198.115982,337.712433 198.743042,335.579071 
	C199.492447,333.029419 198.282104,330.128174 194.494278,329.876923 
	C190.376328,329.603760 186.273148,329.107727 182.000076,328.692993 
	C182.000076,332.321869 182.209366,334.989502 181.944916,337.609344 
	C181.642487,340.605438 182.935623,341.419342 186.537415,341.000000 
M221.720917,329.003662 
	C220.922562,332.125122 220.124222,335.246582 219.164246,338.999908 
	C224.625504,338.999908 228.983444,339.519653 233.119522,338.786957 
	C235.280319,338.404144 238.400253,336.031677 238.692551,334.179901 
	C239.173157,331.135315 236.720520,328.934021 233.116043,328.988678 
	C229.636826,329.041473 226.156204,329.000214 221.720917,329.003662 
M392.000000,359.697998 
	C391.750671,358.500488 391.501343,357.302948 391.252045,356.105438 
	C390.539551,356.297424 389.642883,356.279114 389.144470,356.715576 
	C385.995605,359.472931 382.934998,362.331085 380.282623,364.756073 
	C383.594788,364.756073 387.666962,364.756073 392.000000,364.756073 
	C392.000000,363.214142 392.000000,361.913727 392.000000,359.697998 
z"/>
<path fill="#000000" opacity="1.000000" stroke="none" 
	d="
M360.310242,364.999908 
	C355.412170,365.000000 350.945038,365.000000 346.084320,365.000000 
	C346.084320,350.622986 346.084320,336.544830 346.084320,322.236084 
	C343.287872,322.236084 340.882996,322.236084 338.077087,322.236084 
	C338.077087,327.361877 338.077087,332.451385 338.077087,337.763000 
	C331.947052,337.763000 326.208191,337.763000 320.066650,337.763000 
	C320.066650,332.609100 320.066650,327.522614 320.066650,322.225616 
	C317.268585,322.225616 314.863770,322.225616 312.058777,322.225616 
	C312.058777,336.387451 312.058777,350.468597 312.058777,364.771912 
	C306.621552,364.771912 301.574860,364.771912 295.312500,364.771912 
	C302.959869,361.759003 305.659393,356.208466 307.135956,349.475220 
	C305.635071,349.108582 304.153656,349.001892 302.920227,348.392914 
	C300.263702,347.081268 298.960480,348.415741 298.054535,350.590240 
	C295.498779,356.724823 291.669861,359.008728 285.484375,357.992676 
	C281.213257,357.291107 276.874908,351.892334 277.081818,346.769440 
	C277.256622,342.440918 277.324768,337.799164 278.942902,333.923492 
	C280.606934,329.937805 284.954163,327.565460 289.399414,328.289215 
	C293.927551,329.026489 297.955658,331.381165 298.284393,337.051392 
	C300.942017,336.550812 303.289978,336.108551 305.643250,335.670837 
	C305.969849,328.229156 299.395630,321.565582 290.747833,321.045563 
	C279.795563,320.386963 270.700104,325.939148 268.891052,338.112793 
	C267.288879,348.893860 269.642761,357.663635 279.890930,364.484100 
	C273.883331,364.484100 268.759613,364.484100 263.221069,364.484100 
	C263.221069,350.771393 263.221069,336.695526 263.221069,322.311584 
	C260.429108,322.311584 258.020477,322.311584 255.211578,322.311584 
	C255.211578,336.221771 255.211578,350.312164 255.211578,366.032318 
	C252.952454,364.552216 251.263168,363.994812 250.461792,362.827728 
	C246.448242,356.982635 242.667282,350.977905 238.899948,345.176178 
	C245.565628,343.253296 248.112244,339.173859 246.952637,330.862854 
	C246.372772,326.706970 242.324371,321.445801 235.094162,321.896698 
	C227.636627,322.361694 220.127548,322.000000 212.242340,322.000000 
	C212.242340,336.215271 212.242340,350.290924 212.242340,364.681854 
	C202.112793,364.681854 192.372543,364.681854 182.314911,364.681854 
	C182.314911,359.440948 182.314911,354.033508 182.314911,348.000000 
	C186.079163,348.000000 190.007401,347.973511 193.935150,348.005524 
	C202.150726,348.072540 207.451645,343.061951 207.079346,334.726440 
	C206.706436,326.376953 202.560226,322.043427 193.895111,322.006561 
	C187.729431,321.980286 181.563461,322.011322 175.397690,322.033447 
	C175.095505,322.034546 174.793900,322.195374 174.097412,322.394836 
	C174.097412,336.368011 174.097412,350.447845 174.097412,364.761047 
	C170.965347,364.761047 168.218079,364.761047 165.493454,364.761047 
	C165.952362,364.099701 167.028595,363.129639 166.846741,362.725006 
	C163.204361,354.620117 165.101761,346.083160 165.150421,337.802795 
	C165.230698,324.144440 159.070908,320.680664 146.364059,321.154022 
	C138.003754,321.465454 130.851685,324.735291 129.144180,334.416931 
	C130.892990,334.912018 132.687881,335.765076 134.502060,335.808319 
	C135.645508,335.835571 137.551285,334.893921 137.857010,333.970428 
	C139.702454,328.395721 143.985184,327.725708 148.844940,328.011047 
	C153.756409,328.299438 156.481064,330.932190 157.110016,336.997894 
	C152.009537,337.983826 146.825378,339.203247 141.574005,339.950043 
	C133.689850,341.071259 129.979675,343.662994 128.302628,350.397797 
	C126.789780,356.473267 130.045563,360.579224 134.864899,363.741760 
	C134.937531,363.789429 134.873978,364.044617 134.873978,364.601501 
	C127.772621,364.601501 120.652176,364.601501 113.753227,364.601501 
	C115.972275,362.743317 118.730309,361.013184 120.689529,358.627106 
	C122.576683,356.328735 123.638329,353.352539 125.413696,350.014038 
	C122.167503,349.158752 119.366684,348.420776 116.558937,347.681030 
	C113.453346,359.852844 105.665047,359.731689 98.941498,355.962982 
	C95.436302,353.998260 92.828285,344.579865 94.255455,339.402161 
	C95.509506,334.852509 97.139198,330.724884 102.333267,328.916046 
	C107.045837,327.274902 110.898766,328.346802 113.450867,332.104156 
	C116.453888,336.525330 119.909492,334.823700 123.615669,334.558533 
	C122.209618,325.409271 113.649239,320.574646 105.770515,321.000610 
	C95.275871,321.567993 89.001900,326.946472 87.109406,334.513672 
	C84.494591,344.969116 85.467751,354.871429 94.117737,362.700348 
	C94.541779,363.084137 94.771782,363.682281 95.408798,364.673218 
	C85.672539,364.673218 76.502411,364.673218 67.132408,364.673218 
	C67.132408,362.609589 67.132408,360.650574 67.132408,358.300537 
	C60.873585,358.300537 54.787842,358.300537 48.132095,358.300537 
	C48.132095,347.059692 48.132095,336.185211 48.132095,325.162598 
	C45.604885,325.162598 43.645752,325.162598 41.279510,325.162598 
	C41.279510,338.129303 41.279510,351.208130 41.279510,364.641479 
	C39.378288,364.641479 37.874557,364.641479 36.148499,364.641479 
	C36.148499,362.640656 36.148499,360.680115 36.148499,358.149780 
	C28.428152,358.149780 20.886854,358.149780 13.182578,358.149780 
	C13.182578,354.630341 13.182578,351.674042 13.182578,348.146515 
	C19.912264,348.146515 26.794046,348.146515 33.827526,348.146515 
	C33.827526,345.631195 33.827526,343.672729 33.827526,341.143188 
	C27.093098,341.143188 20.214602,341.143188 13.178150,341.143188 
	C13.178150,337.961548 13.178150,335.336670 13.178150,332.141785 
	C20.249142,332.141785 27.461809,332.141785 34.828949,332.141785 
	C34.828949,329.622131 34.828949,327.665466 34.828949,325.315338 
	C25.542276,325.315338 16.128624,325.315338 6.358461,325.315338 
	C6.358461,230.526489 6.358461,136.127945 6.358461,41.282738 
	C7.280454,41.206676 8.532955,41.014408 9.785628,41.013279 
	C30.450096,40.994617 51.114788,41.043854 71.778854,40.951225 
	C74.769127,40.937820 75.892776,41.755798 77.207954,44.823112 
	C83.071678,58.498745 90.560425,71.223579 100.132759,82.805984 
	C112.293037,97.519791 127.234314,108.552162 143.631180,117.831673 
	C147.764160,120.170677 152.377121,121.661598 156.989578,123.636482 
	C156.989578,159.458191 156.989578,195.426468 156.989578,231.697021 
	C192.588196,231.697021 227.991196,231.697021 263.773621,231.697021 
	C263.773621,195.732330 263.773621,159.648880 263.773621,123.406143 
	C302.149200,106.942856 329.651306,79.973900 345.218323,41.180054 
	C360.698212,41.180054 376.132690,41.180054 391.327454,41.180054 
	C391.327454,138.450058 391.327454,235.538635 391.327454,331.957947 
	C387.960052,328.971161 385.057983,325.184845 381.222168,323.339539 
	C377.468475,321.533722 372.684784,320.820984 368.491608,321.192169 
	C359.411407,321.995850 353.049622,328.267181 351.320984,338.642426 
	C349.859863,347.411865 351.470337,357.395355 363.164886,364.493744 
	C362.053833,364.725739 361.397522,364.862762 360.310242,364.999908 
z"/>
<path fill="#000000" opacity="1.000000" stroke="none" 
	d="
M150.057236,75.004738 
	C138.066422,65.815842 128.688324,54.819832 121.661156,41.212311 
	C180.955688,41.212311 239.669495,41.212311 299.314178,41.212311 
	C298.717010,42.908054 298.442108,44.540035 297.637970,45.846161 
	C282.217865,70.892090 259.538452,86.145775 231.333344,92.658684 
	C210.628189,97.439751 189.902222,95.690491 170.363800,86.629562 
	C163.418335,83.408600 157.052780,78.937119 150.057236,75.004738 
z"/>
<path fill="#000000" opacity="1.000000" stroke="none" 
	d="
M360.000397,338.256927 
	C362.243896,331.522919 367.733398,327.487976 372.847504,328.399323 
	C379.863098,329.649475 383.899628,334.562347 384.007782,341.900421 
	C384.075836,346.519226 383.916779,350.800476 380.181946,354.527252 
	C376.660889,358.040741 372.695374,358.794189 368.469940,357.700714 
	C364.005249,356.545319 360.912048,353.188660 360.116425,348.584076 
	C359.560913,345.369324 360.003174,341.982178 360.000397,338.256927 
z"/>
<path fill="#000000" opacity="1.000000" stroke="none" 
	d="
M337.969604,347.229614 
	C337.996063,353.337677 337.996063,358.962341 337.996063,364.789490 
	C331.891479,364.789490 326.153870,364.789490 320.207642,364.789490 
	C320.207642,358.552063 320.207642,352.481140 320.207642,345.678223 
	C326.254852,346.042358 332.098999,346.394287 337.969604,347.229614 
z"/>
<path fill="#000000" opacity="1.000000" stroke="none" 
	d="
M227.343674,347.003784 
	C232.444138,352.551514 237.121460,358.095856 241.798782,363.640167 
	C241.460205,364.010620 241.121628,364.381042 240.783035,364.751495 
	C234.057022,364.751495 227.331009,364.751495 220.301392,364.751495 
	C220.301392,359.085266 220.301392,353.351654 220.301392,347.000427 
	C222.417542,347.000427 224.669037,347.000427 227.343674,347.003784 
z"/>
<path fill="#000000" opacity="1.000000" stroke="none" 
	d="
M143.798279,346.655823 
	C148.239304,345.674500 152.370087,344.983185 156.501785,344.291718 
	C158.027130,353.182556 149.311630,361.067596 140.903961,357.724396 
	C139.087784,357.002197 137.199020,353.723846 137.253098,351.673248 
	C137.336044,348.527863 140.041504,346.754486 143.798279,346.655823 
z"/>
<path fill="#000000" opacity="1.000000" stroke="none" 
	d="
M186.064484,341.000000 
	C182.935623,341.419342 181.642487,340.605438 181.944916,337.609344 
	C182.209366,334.989502 182.000076,332.321869 182.000076,328.692993 
	C186.273148,329.107727 190.376328,329.603760 194.494278,329.876923 
	C198.282104,330.128174 199.492447,333.029419 198.743042,335.579071 
	C198.115982,337.712433 195.608017,339.819366 193.421783,340.810089 
	C191.494186,341.683655 188.859741,340.997467 186.064484,341.000000 
z"/>
<path fill="#000000" opacity="1.000000" stroke="none" 
	d="
M222.198547,329.001953 
	C226.156204,329.000214 229.636826,329.041473 233.116043,328.988678 
	C236.720520,328.934021 239.173157,331.135315 238.692551,334.179901 
	C238.400253,336.031677 235.280319,338.404144 233.119522,338.786957 
	C228.983444,339.519653 224.625504,338.999908 219.164246,338.999908 
	C220.124222,335.246582 220.922562,332.125122 222.198547,329.001953 
z"/>
<path fill="#000000" opacity="1.000000" stroke="none" 
	d="
M392.000000,360.155670 
	C392.000000,361.913727 392.000000,363.214142 392.000000,364.756073 
	C387.666962,364.756073 383.594788,364.756073 380.282623,364.756073 
	C382.934998,362.331085 385.995605,359.472931 389.144470,356.715576 
	C389.642883,356.279114 390.539551,356.297424 391.252045,356.105438 
	C391.501343,357.302948 391.750671,358.500488 392.000000,360.155670 
z"/>
</svg>